<svg width="179" height="52" viewBox="0 0 179 52" fill="none" xmlns="http://www.w3.org/2000/svg">
    <path d="M66.5616 39.1669C64.7025 39.1669 63.2152 38.981 62.0377 38.6091C60.8603 38.2993 59.9927 37.6796 59.435 36.812C58.8153 36.0064 58.5054 34.8909 58.4434 33.4656C58.3815 32.0403 58.5674 30.3051 58.9392 28.2601L62.7814 7.74785C62.9053 7.00421 62.5955 6.63239 61.8518 6.63239H60.7983C59.9927 6.63239 59.6829 6.19859 59.8068 5.39298L60.5504 1.3649C60.6744 0.559281 61.1701 0.125489 62.0377 0.125489H68.1108C70.1559 0.125489 71.4572 0.497312 72.0769 1.30293C72.6966 2.10854 72.8206 3.53386 72.4488 5.57889L68.0489 29.5615C67.801 30.8628 67.801 31.8544 68.0489 32.4121C68.2967 32.9698 68.9784 33.2797 70.1559 33.2797H71.0854C71.891 33.2797 72.2009 33.7135 72.0769 34.5191L71.4572 37.9275C71.3333 38.7331 70.8375 39.1669 69.9699 39.1669H66.5616Z" fill="#000"></path>
    <path d="M89.8812 21.3958C90.0051 20.6521 89.6953 20.2803 89.0136 20.2803H87.9601C87.1545 20.2803 86.7826 19.8465 86.9066 19.0409L87.6502 15.0128C87.7742 14.2072 88.2699 13.7734 89.1375 13.7734H95.2106C97.2556 13.7734 98.619 14.1452 99.3007 14.9508C99.9204 15.7565 100.044 17.1818 99.6725 19.2268L95.8303 39.739C95.5205 41.4742 94.9008 43.0854 94.0332 44.5108C93.1656 45.9361 92.1121 47.1755 90.8107 48.291C89.5093 49.3445 88.0221 50.1501 86.4108 50.7078C84.7376 51.2655 83.0024 51.5754 81.1433 51.5754C77.611 51.5754 74.8223 50.7698 72.7154 49.0966C70.6084 47.4234 69.5549 45.1924 69.5549 42.4657C69.5549 41.7841 69.6168 41.3503 69.8027 41.1024C69.9267 40.8545 70.1746 40.7306 70.4844 40.7306H77.7969C78.1068 40.7306 78.3547 40.7925 78.4786 40.9784C78.5406 41.1024 78.6025 41.2263 78.6645 41.4122C78.8504 42.1559 79.2223 42.7756 79.78 43.3333C80.2757 43.8291 81.1433 44.077 82.1968 44.077C83.2503 44.077 84.1179 43.7051 84.9235 43.0235C85.7291 42.3418 86.2249 41.3503 86.4108 40.1109L86.7207 38.4376C84.7996 39.3672 82.9405 39.801 81.0194 39.801C79.718 39.801 78.5406 39.6151 77.4871 39.1813C76.3716 38.7475 75.4421 38.1278 74.7604 37.3222C74.0167 36.5166 73.521 35.4631 73.2731 34.2237C72.9632 32.9842 72.9632 31.5589 73.2731 29.8857L74.8223 21.3958C75.0083 20.6521 74.6984 20.2803 73.9548 20.2803H72.9013C72.0957 20.2803 71.7238 19.8465 71.8478 19.0409L72.5914 15.0128C72.7154 14.2072 73.2111 13.7734 74.0787 13.7734H80.1518C82.1968 13.7734 83.4982 14.1452 84.1799 14.9508C84.7996 15.7565 84.9235 17.1818 84.5517 19.2268L82.8785 28.2745C82.6926 29.4519 82.8165 30.3195 83.2503 30.8773C83.6841 31.435 84.3658 31.7448 85.2334 31.7448C85.6052 31.7448 85.9151 31.7448 86.1629 31.6829C86.4108 31.6209 86.7207 31.5589 87.0925 31.435C87.7122 31.1871 88.084 30.8153 88.208 30.2575L89.8812 21.3958Z" fill="#000"></path>
    <path d="M130.465 13.759C131.27 13.759 131.58 14.1928 131.456 14.9984L130.836 18.4687C130.712 19.2744 130.217 19.7082 129.349 19.7082H128.234C127.924 19.7082 127.676 19.7701 127.49 19.8941C127.304 20.018 127.118 20.2659 126.808 20.6997L124.391 24.17C123.71 25.0996 123.028 25.6573 122.284 25.9672C122.594 26.1531 122.842 26.401 123.028 26.6488C123.152 26.9587 123.338 27.2685 123.524 27.7023L125.941 32.2882C126.127 32.7219 126.312 32.9698 126.374 33.0938C126.436 33.2177 126.684 33.2797 126.994 33.2797H128.481C129.287 33.2797 129.597 33.7135 129.473 34.5191L128.853 37.9275C128.729 38.7331 128.234 39.1669 127.366 39.1669H115.716C114.91 39.1669 114.6 38.7331 114.724 37.9275L115.344 34.5191C115.468 33.7135 115.963 33.2797 116.831 33.2797H117.203C117.823 33.2797 118.008 33.0318 117.761 32.598L116.087 29.6234C115.839 29.1896 115.654 28.8798 115.53 28.6939C115.344 28.5699 114.848 28.508 114.042 28.508H112.679C112.307 28.508 112.059 28.6319 111.997 28.8178C111.935 29.0037 111.811 29.2516 111.749 29.5615L111.254 32.1642C111.068 32.9079 111.378 33.2797 112.183 33.2797H113.051C113.856 33.2797 114.166 33.7135 114.042 34.5191L113.423 37.9275C113.299 38.7331 112.803 39.1669 111.935 39.1669H98.6737C97.8681 39.1669 97.5582 38.7331 97.6822 37.9275L98.3019 34.5191C98.4258 33.7135 98.9216 33.2797 99.7892 33.2797H100.657C101.4 33.2797 101.834 32.9079 101.958 32.1642L106.482 7.74785C106.606 7.00421 106.296 6.63239 105.552 6.63239H104.499C103.693 6.63239 103.383 6.19859 103.507 5.39298L104.251 1.3649C104.375 0.55928 104.871 0.125488 105.738 0.125488H111.811C113.856 0.125488 115.158 0.497311 115.778 1.30293C116.397 2.10854 116.521 3.53386 116.149 5.57889L113.113 21.9391C112.989 22.5588 113.175 22.8686 113.732 22.8686H115.592C116.149 22.8686 116.583 22.8067 116.831 22.6827C117.079 22.6208 117.389 22.3109 117.761 21.7532L118.752 20.2659C118.938 19.956 119.062 19.7701 119 19.7082C118.938 19.6462 118.752 19.5842 118.442 19.5842H117.699C116.893 19.5842 116.521 19.1504 116.645 18.3448L117.265 14.9984C117.389 14.1928 117.885 13.759 118.752 13.759H130.465Z" fill="#000"></path>
    <path d="M141.426 39.7987C137.956 39.7987 135.229 38.8071 133.184 36.7621C131.139 34.7791 130.147 32.1143 130.147 28.7679C130.147 26.599 130.519 24.5539 131.263 22.6329C131.945 20.7737 132.936 19.1005 134.299 17.6752C135.539 16.2499 137.15 15.1344 138.947 14.3288C140.744 13.5852 142.727 13.1514 144.896 13.1514C148.305 13.1514 151.031 14.1429 153.076 16.126C155.059 18.109 156.051 20.8357 156.051 24.2441C156.051 24.9258 155.989 25.4835 155.927 25.8553C155.865 26.2891 155.741 26.7229 155.679 27.1567C155.493 27.9623 155.121 28.3341 154.44 28.3341H140.001C139.567 28.3341 139.257 28.5201 139.195 28.8299C139.133 29.1398 139.071 29.5116 139.071 29.8214C139.071 30.8749 139.381 31.7425 140.063 32.3622C140.682 32.9819 141.488 33.2918 142.479 33.2918C143.905 33.2918 144.958 32.734 145.764 31.6186C146.074 31.2468 146.322 30.9369 146.508 30.751C146.693 30.5651 146.941 30.5031 147.313 30.5031H153.634C153.944 30.5031 154.192 30.5651 154.378 30.751C154.564 30.9369 154.564 31.1848 154.44 31.4946C153.944 32.734 153.262 33.8495 152.395 34.841C151.527 35.8945 150.536 36.7621 149.42 37.5058C148.243 38.2494 147.003 38.8071 145.64 39.2409C144.277 39.6128 142.851 39.7987 141.426 39.7987ZM146.322 23.6864C146.755 23.6864 147.003 23.5004 147.003 23.0667C146.941 21.7653 146.57 20.8977 145.95 20.4639C145.33 20.0301 144.648 19.8442 143.967 19.8442C143.285 19.8442 142.541 20.0921 141.798 20.5259C141.054 20.9597 140.496 21.8272 140.063 23.0667C140.001 23.2526 139.939 23.4385 140.001 23.5004C140.063 23.6244 140.187 23.6864 140.496 23.6864H146.322Z" fill="#000"></path>
    <path d="M23.3677 45.2911C35.8499 45.2911 45.9688 35.1722 45.9688 22.69C45.9688 10.2077 35.8499 0.0888672 23.3677 0.0888672C10.8854 0.0888672 0.766541 10.2077 0.766541 22.69C0.766541 35.1722 10.8854 45.2911 23.3677 45.2911Z" fill="#2FC5F4"></path>
    <path fill-rule="evenodd" clip-rule="evenodd" d="M33.7148 32.5622C33.8198 31.9059 33.3723 31.373 32.7159 31.373H24.3484C23.6921 31.373 23.0741 31.9059 22.9691 32.5622L22.5888 34.9404C22.4838 35.5966 22.9314 36.1295 23.5877 36.1295H31.9552C32.6116 36.1295 33.2295 35.5966 33.3345 34.9404L33.7148 32.5622Z" fill="#007DAB"></path>
    <path d="M18.9766 35.976C17.7242 35.976 16.7223 35.8507 15.9291 35.6003C15.1359 35.3915 14.5514 34.9741 14.1757 34.3896C13.7582 33.8469 13.5495 33.0954 13.5077 32.1352C13.466 31.1751 13.5912 30.0061 13.8417 28.6285L16.43 14.8102C16.5135 14.3092 16.43 14.0587 15.9291 14.0587C15.3863 14.0587 15.1776 13.7665 15.2611 13.2238L15.7621 10.5102C15.8456 9.96752 16.1795 9.67529 16.764 9.67529H20.0203C21.3979 9.67529 22.2746 9.92578 22.6921 10.4685C23.1096 11.0112 23.1931 11.9714 22.9426 13.349L19.9785 29.5052C19.6446 31.8013 20.1455 31.3838 20.1455 31.3838H20.4795C20.9805 31.3838 21.2309 31.6343 21.1475 32.2187L20.73 35.141C20.6465 35.6838 20.3125 35.976 19.7281 35.976H18.9766Z" fill="#fff"></path>
    <path fill-rule="evenodd" clip-rule="evenodd" d="M178.106 33.703C178.267 32.6998 177.583 31.8853 176.579 31.8853H159.627C158.624 31.8853 157.679 32.6998 157.519 33.703L156.937 37.3385C156.777 38.3417 157.461 39.1563 158.464 39.1563H175.416C176.42 39.1563 177.364 38.3417 177.525 37.3385L178.106 33.703Z" fill="#007DAB"></path>
</svg>